<svg version="1.1" id="Layer_1" xmlns="http://www.w3.org/2000/svg" xmlns:xlink="http://www.w3.org/1999/xlink" x="0px" y="0px"
	 width="100%" viewBox="0 0 502 593" enable-background="new 0 0 502 593" xml:space="preserve">
<path fill="#0D0D0D" opacity="1.000000" stroke="none" 
	d="
M1.000000,593.000000 
	C1.000000,395.716156 1.000000,198.432297 1.000000,1.074224 
	C168.241867,1.074224 335.483765,1.074224 503.000000,1.074224 
	C503.000000,198.025757 503.000000,395.051636 502.531342,592.538757 
	C429.784058,593.000000 357.505310,593.041992 285.227112,592.866699 
	C281.877960,592.858582 278.105682,591.565979 275.270599,589.729187 
	C268.035156,585.041626 258.137939,584.358154 251.346130,589.656128 
	C247.873917,592.364685 244.436646,593.046204 240.318832,593.043213 
	C160.545929,592.984924 80.772957,593.000000 1.000000,593.000000 
M181.890091,353.759430 
	C187.538559,364.864655 193.187012,375.969849 198.940201,387.791321 
	C202.904251,395.547455 206.868301,403.303558 210.936539,411.777985 
	C214.569107,418.871429 218.201660,425.964905 221.890991,433.789581 
	C224.832947,439.563354 227.774902,445.337158 230.922867,451.803955 
	C233.917526,457.600586 236.912186,463.397186 239.992599,469.895203 
	C243.850784,477.647156 247.708969,485.399139 251.984070,493.988831 
	C254.908157,488.179779 257.252747,483.591644 259.536194,478.973297 
	C268.089447,461.674194 276.622711,444.365204 285.687500,426.619659 
	C294.180695,409.433746 302.673920,392.247803 311.689819,374.620178 
	C315.421326,367.074493 319.152863,359.528839 323.834717,351.926514 
	C347.039642,351.926514 370.244598,351.926514 394.351685,351.926514 
	C386.363220,336.233795 378.669556,321.120209 370.812317,305.313385 
	C367.533508,298.877838 364.254700,292.442322 360.905060,285.287598 
	C357.018799,277.710114 353.132507,270.132660 349.106842,261.871399 
	C344.237976,252.179276 339.369080,242.487152 334.255981,232.104553 
	C330.474884,224.730865 326.693756,217.357178 322.814575,209.279419 
	C314.374817,192.450790 305.935089,175.622147 297.237671,158.096390 
	C292.653534,148.994522 288.069397,139.892670 283.248077,130.094284 
	C278.334869,120.332115 273.421661,110.569946 268.249756,100.114700 
	C266.000397,95.678818 263.751068,91.242935 261.256226,86.106277 
	C258.317139,80.164635 255.378052,74.223000 251.922150,67.236595 
	C243.181534,85.058731 235.101898,101.533142 226.528030,118.484489 
	C219.994705,131.611343 213.461395,144.738190 206.306351,158.220093 
	C206.133347,158.683594 205.998505,159.165802 205.781830,159.607925 
	C197.553650,176.397964 189.317932,193.184296 180.559143,210.436157 
	C172.862473,225.903931 165.165802,241.371704 157.049774,257.342712 
	C150.524658,270.508545 143.999557,283.674408 137.054688,297.340179 
	C131.044952,309.562439 125.035217,321.784698 118.533104,334.485962 
	C115.917526,339.831207 113.301941,345.176422 110.236275,350.888306 
	C110.497063,351.200531 110.757851,351.512787 111.951111,351.896973 
	C121.631813,351.837189 131.312515,351.777405 141.919205,351.879272 
	C154.951431,351.933380 167.983673,351.987518 181.085312,352.476013 
	C181.168045,352.790833 181.367920,352.984772 181.890091,353.759430 
z"/>
<path fill="#161616" opacity="1.000000" stroke="none" 
	d="
M1.000000,593.500000 
	C80.772957,593.000000 160.545929,592.984924 240.318832,593.043213 
	C244.436646,593.046204 247.873917,592.364685 251.346130,589.656128 
	C258.137939,584.358154 268.035156,585.041626 275.270599,589.729187 
	C278.105682,591.565979 281.877960,592.858582 285.227112,592.866699 
	C357.505310,593.041992 429.784058,593.000000 502.531342,593.000000 
	C501.668335,593.333374 500.337402,593.953735 499.004852,593.957275 
	C476.527344,594.017029 454.049652,594.000000 431.571991,594.000000 
	C288.048004,594.000000 144.524002,594.000000 1.000000,593.500000 
z"/>
<path fill="#FF7711" opacity="1.000000" stroke="none" 
	d="
M268.508423,100.807785 
	C273.421661,110.569946 278.334869,120.332115 283.048462,130.623657 
	C281.947906,131.889206 280.975525,132.553802 280.156464,133.371902 
	C256.338715,157.162048 232.526825,180.958084 208.760544,204.799561 
	C207.625412,205.938278 206.915176,207.500549 205.538086,208.892609 
	C197.673538,209.265900 190.277969,209.612152 182.582443,209.966644 
	C181.882721,209.973648 181.482971,209.972397 181.083221,209.971146 
	C189.317932,193.184296 197.553650,176.397964 205.781830,159.607925 
	C205.998505,159.165802 206.133347,158.683594 206.875900,158.200165 
	C209.629517,156.955246 212.216583,156.138458 213.935059,154.441864 
	C230.447220,138.140198 246.801559,121.678734 263.238281,105.300377 
	C264.868530,103.675941 266.745819,102.299393 268.508423,100.807785 
z"/>
<path fill="#FE840A" opacity="1.000000" stroke="none" 
	d="
M137.474442,296.840240 
	C143.999557,283.674408 150.524658,270.508545 157.688934,257.108612 
	C160.423584,256.440186 162.711685,256.405334 164.581818,255.503647 
	C173.522217,251.192978 182.341125,246.630966 191.218475,242.188751 
	C206.159286,234.712418 221.172440,227.377350 236.027405,219.734573 
	C241.535812,216.900558 246.684433,213.367218 252.464981,210.118210 
	C270.952698,210.114304 288.972565,210.144989 306.853210,210.474182 
	C303.345184,212.823166 300.101746,215.123749 296.587616,216.884048 
	C271.385895,229.508133 246.108597,241.981522 220.918167,254.628021 
	C218.064651,256.060608 215.601852,258.271423 212.617950,259.994812 
	C207.733734,256.417419 203.041595,256.079071 198.119278,259.090942 
	C193.169586,262.119598 192.693283,266.913849 192.511536,272.035461 
	C190.145706,272.856171 188.074127,273.498688 186.155823,274.450226 
	C172.596848,281.175690 159.106094,288.040070 145.497955,294.663696 
	C143.050217,295.855103 140.160233,296.137909 137.474442,296.840240 
z"/>
<path fill="#FF6D17" opacity="1.000000" stroke="none" 
	d="
M349.246216,262.555206 
	C353.132507,270.132660 357.018799,277.710114 360.605560,285.738586 
	C352.966125,290.029572 345.678101,293.973114 338.275177,297.687683 
	C323.598480,305.052094 308.847809,312.268829 294.147400,319.586243 
	C279.003113,327.124634 263.756042,334.473175 248.828278,342.420074 
	C244.364105,344.796600 238.253372,345.136597 235.533600,350.977631 
	C219.379578,350.985657 203.694382,350.981476 188.106201,350.648682 
	C189.853149,349.021179 191.342743,347.406830 193.178528,346.473541 
	C206.979095,339.457520 220.870193,332.619568 234.670517,325.603088 
	C236.677612,324.582611 238.352600,322.908905 240.486572,321.706604 
	C250.254761,331.058136 256.901215,330.375916 264.190308,319.517456 
	C269.278595,311.937500 274.413544,304.388794 279.949982,296.846802 
	C282.301361,296.470001 284.421509,296.459229 286.129852,295.615082 
	C302.738220,287.408386 319.320709,279.146240 335.809174,270.701904 
	C340.459290,268.320404 344.776398,265.288696 349.246216,262.555206 
z"/>
<path fill="#FF7E0E" opacity="1.000000" stroke="none" 
	d="
M212.957855,260.121368 
	C215.601852,258.271423 218.064651,256.060608 220.918167,254.628021 
	C246.108597,241.981522 271.385895,229.508133 296.587616,216.884048 
	C300.101746,215.123749 303.345184,212.823166 307.318024,210.438995 
	C312.358551,210.070251 316.794983,210.035202 321.511841,210.003113 
	C322.165710,209.998566 322.539154,209.991028 322.912628,209.983490 
	C326.693756,217.357178 330.474884,224.730865 334.047485,232.630585 
	C326.334961,236.772583 318.830933,240.388565 311.201843,243.648117 
	C309.913879,237.858963 306.688171,234.440720 301.147736,233.579315 
	C295.801300,232.748062 291.903137,235.224564 288.940125,239.479263 
	C286.018555,243.674393 283.102051,247.873047 279.798645,252.087936 
	C272.521698,255.239990 265.583313,258.277557 258.747986,261.531555 
	C248.767670,266.282654 238.861359,271.189209 228.617584,275.899658 
	C223.193726,270.553619 218.075806,265.337494 212.957855,260.121368 
z"/>
<path fill="#FE6E16" opacity="1.000000" stroke="none" 
	d="
M206.007080,208.865570 
	C206.915176,207.500549 207.625412,205.938278 208.760544,204.799561 
	C232.526825,180.958084 256.338715,157.162048 280.156464,133.371902 
	C280.975525,132.553802 281.947906,131.889206 283.167053,130.971924 
	C288.069397,139.892670 292.653534,148.994522 297.047058,158.625092 
	C296.196747,159.658035 295.469940,160.094971 294.887177,160.676331 
	C280.042908,175.484436 265.200378,190.294357 250.411240,205.157410 
	C249.395569,206.178162 248.799194,207.616119 247.538681,208.885834 
	C233.382050,208.896286 219.694565,208.880936 206.007080,208.865570 
z"/>
<path fill="#FF671A" opacity="1.000000" stroke="none" 
	d="
M236.002441,350.965393 
	C238.253372,345.136597 244.364105,344.796600 248.828278,342.420074 
	C263.756042,334.473175 279.003113,327.124634 294.147400,319.586243 
	C308.847809,312.268829 323.598480,305.052094 338.275177,297.687683 
	C345.678101,293.973114 352.966125,290.029572 360.640991,286.098145 
	C364.254700,292.442322 367.533508,298.877838 370.551941,305.752991 
	C367.581604,307.450653 364.839264,308.643829 362.166840,309.977173 
	C341.681366,320.198151 321.153320,330.336456 300.768982,340.755737 
	C294.957489,343.726196 289.575623,347.537109 283.528503,350.974518 
	C267.374359,350.979401 251.688400,350.972412 236.002441,350.965393 
z"/>
<path fill="#FF611C" opacity="1.000000" stroke="none" 
	d="
M283.996735,350.962616 
	C289.575623,347.537109 294.957489,343.726196 300.768982,340.755737 
	C321.153320,330.336456 341.681366,320.198151 362.166840,309.977173 
	C364.839264,308.643829 367.581604,307.450653 370.633728,306.099609 
	C378.669556,321.120209 386.363220,336.233795 394.351685,351.926514 
	C370.244598,351.926514 347.039642,351.926514 323.055908,351.964569 
	C321.871613,352.003021 321.466156,352.003448 320.694153,351.799744 
	C318.524689,351.399658 316.722839,351.045746 314.918701,351.033722 
	C304.611694,350.964996 294.304108,350.977631 283.996735,350.962616 
z"/>
<path fill="#FF7711" opacity="1.000000" stroke="none" 
	d="
M321.060699,352.003876 
	C321.466156,352.003448 321.871613,352.003021 322.580719,351.992889 
	C319.152863,359.528839 315.421326,367.074493 311.080658,374.912292 
	C307.816071,377.134735 304.855225,378.757324 302.552734,381.043121 
	C280.529846,402.906677 258.636841,424.901031 236.638733,446.789703 
	C234.926651,448.493286 232.702835,449.682587 230.716858,451.110901 
	C227.774902,445.337158 224.832947,439.563354 222.203583,433.332520 
	C224.320908,431.440887 226.284332,430.165436 227.906509,428.547791 
	C251.608307,404.912476 275.285706,381.252502 298.879425,357.509430 
	C300.300720,356.079163 300.968475,353.900055 302.456177,352.047363 
	C308.970551,352.018188 315.015625,352.011047 321.060699,352.003876 
z"/>
<path fill="#FF7711" opacity="1.000000" stroke="none" 
	d="
M110.686363,350.521667 
	C113.301941,345.176422 115.917526,339.831207 119.181442,334.241699 
	C122.497086,333.192719 125.342674,332.747833 127.804382,331.528168 
	C155.056015,318.025879 182.248093,304.403442 209.740662,290.961853 
	C215.168793,296.345276 220.312531,301.580383 225.111542,306.975220 
	C198.587540,320.218506 172.383072,333.252258 146.276520,346.479309 
	C144.171204,347.546021 142.738495,349.940308 140.993225,351.717651 
	C131.312515,351.777405 121.631813,351.837189 111.417862,351.531067 
	C110.818535,350.950714 110.752449,350.736206 110.686363,350.521667 
z"/>
<path fill="#FF7E0E" opacity="1.000000" stroke="none" 
	d="
M301.986847,352.069397 
	C300.968475,353.900055 300.300720,356.079163 298.879425,357.509430 
	C275.285706,381.252502 251.608307,404.912476 227.906509,428.547791 
	C226.284332,430.165436 224.320908,431.440887 222.175201,432.966919 
	C218.201660,425.964905 214.569107,418.871429 211.225494,411.327118 
	C212.608704,410.147919 213.860565,409.577728 214.773880,408.667786 
	C232.086823,391.418701 249.383835,374.153351 266.588593,356.796631 
	C267.771759,355.603058 268.203827,353.664978 269.454895,352.047424 
	C280.612000,352.037598 291.299408,352.053497 301.986847,352.069397 
z"/>
<path fill="#FF7E0E" opacity="1.000000" stroke="none" 
	d="
M209.456284,290.813507 
	C182.248093,304.403442 155.056015,318.025879 127.804382,331.528168 
	C125.342674,332.747833 122.497086,333.192719 119.427628,334.002167 
	C125.035217,321.784698 131.044952,309.562439 137.264557,297.090210 
	C140.160233,296.137909 143.050217,295.855103 145.497955,294.663696 
	C159.106094,288.040070 172.596848,281.175690 186.155823,274.450226 
	C188.074127,273.498688 190.145706,272.856171 192.684540,272.336365 
	C194.649673,274.574036 195.900085,276.708862 197.538849,278.485443 
	C201.413086,282.685394 205.472031,286.715027 209.456284,290.813507 
z"/>
<path fill="#FF611C" opacity="1.000000" stroke="none" 
	d="
M248.007828,208.860046 
	C248.799194,207.616119 249.395569,206.178162 250.411240,205.157410 
	C265.200378,190.294357 280.042908,175.484436 294.887177,160.676331 
	C295.469940,160.094971 296.196747,159.658035 297.175903,158.973663 
	C305.935089,175.622147 314.374817,192.450790 322.863586,209.631454 
	C322.539154,209.991028 322.165710,209.998566 321.129364,209.787018 
	C318.340332,209.363892 316.214783,208.989365 314.087952,208.982162 
	C292.061371,208.907455 270.034576,208.891983 248.007828,208.860046 
z"/>
<path fill="#FE8A07" opacity="1.000000" stroke="none" 
	d="
M251.997131,210.152802 
	C246.684433,213.367218 241.535812,216.900558 236.027405,219.734573 
	C221.172440,227.377350 206.159286,234.712418 191.218475,242.188751 
	C182.341125,246.630966 173.522217,251.192978 164.581818,255.503647 
	C162.711685,256.405334 160.423584,256.440186 157.898621,256.856995 
	C165.165802,241.371704 172.862473,225.903931 180.821182,210.203644 
	C181.482971,209.972397 181.882721,209.973648 183.064636,209.974792 
	C206.563583,210.034058 229.280365,210.093445 251.997131,210.152802 
z"/>
<path fill="#FF8709" opacity="1.000000" stroke="none" 
	d="
M268.985229,352.073151 
	C268.203827,353.664978 267.771759,355.603058 266.588593,356.796631 
	C249.383835,374.153351 232.086823,391.418701 214.773880,408.667786 
	C213.860565,409.577728 212.608704,410.147919 211.173401,410.967957 
	C206.868301,403.303558 202.904251,395.547455 199.179352,387.251465 
	C209.948227,376.628723 220.514603,366.583527 230.952393,356.406403 
	C232.027374,355.358276 232.334717,353.522797 233.466644,352.029327 
	C245.618423,352.028381 257.301819,352.050781 268.985229,352.073151 
z"/>
<path fill="#FE7213" opacity="1.000000" stroke="none" 
	d="
M311.326904,244.004562 
	C318.830933,240.388565 326.334961,236.772583 334.169617,232.975815 
	C339.369080,242.487152 344.237976,252.179276 349.176514,262.213318 
	C344.776398,265.288696 340.459290,268.320404 335.809174,270.701904 
	C319.320709,279.146240 302.738220,287.408386 286.129852,295.615082 
	C284.421509,296.459229 282.301361,296.470001 280.093750,296.523376 
	C289.025146,282.314545 298.363922,268.532349 307.344635,254.520676 
	C309.323669,251.432968 310.032928,247.531372 311.326904,244.004562 
z"/>
<path fill="#FE7213" opacity="1.000000" stroke="none" 
	d="
M141.456223,351.798462 
	C142.738495,349.940308 144.171204,347.546021 146.276520,346.479309 
	C172.383072,333.252258 198.587540,320.218506 225.396149,307.122833 
	C230.744080,311.919617 235.462662,316.728546 240.181244,321.537445 
	C238.352600,322.908905 236.677612,324.582611 234.670517,325.603088 
	C220.870193,332.619568 206.979095,339.457520 193.178528,346.473541 
	C191.342743,347.406830 189.853149,349.021179 187.735016,350.661804 
	C185.876038,351.303955 184.485291,351.604340 182.847610,351.925781 
	C182.600677,351.946838 182.106827,351.989014 181.833527,351.990234 
	C181.378769,352.008179 181.197342,352.024902 181.015900,352.041656 
	C167.983673,351.987518 154.951431,351.933380 141.456223,351.798462 
z"/>
<path fill="#FE7213" opacity="1.000000" stroke="none" 
	d="
M230.819855,451.457428 
	C232.702835,449.682587 234.926651,448.493286 236.638733,446.789703 
	C258.636841,424.901031 280.529846,402.906677 302.552734,381.043121 
	C304.855225,378.757324 307.816071,377.134735 310.819336,375.133179 
	C302.673920,392.247803 294.180695,409.433746 285.057709,426.859955 
	C282.532043,428.320221 280.362427,429.260223 278.783508,430.804291 
	C265.762634,443.537415 252.851334,456.382599 239.906845,469.193817 
	C236.912186,463.397186 233.917526,457.600586 230.819855,451.457428 
z"/>
<path fill="#FF7E0E" opacity="1.000000" stroke="none" 
	d="
M268.379089,100.461243 
	C266.745819,102.299393 264.868530,103.675941 263.238281,105.300377 
	C246.801559,121.678734 230.447220,138.140198 213.935059,154.441864 
	C212.216583,156.138458 209.629517,156.955246 207.186768,158.022644 
	C213.461395,144.738190 219.994705,131.611343 227.116806,118.165802 
	C229.961823,116.240082 232.446976,114.873955 234.435089,112.984756 
	C243.533463,104.339012 252.492584,95.546715 261.501709,86.807053 
	C263.751068,91.242935 266.000397,95.678818 268.379089,100.461243 
z"/>
<path fill="#FE8A07" opacity="1.000000" stroke="none" 
	d="
M182.106827,351.989014 
	C182.106827,351.989014 182.600677,351.946838 183.306122,351.930542 
	C200.340469,351.960388 216.669373,352.006531 232.998276,352.052673 
	C232.334717,353.522797 232.027374,355.358276 230.952393,356.406403 
	C220.514603,366.583527 209.948227,376.628723 199.126984,386.893311 
	C193.187012,375.969849 187.538559,364.864655 181.898529,353.144470 
	C181.973572,352.349365 182.040192,352.169189 182.106827,351.989014 
z"/>
<path fill="#FF6D17" opacity="1.000000" stroke="none" 
	d="
M239.949722,469.544495 
	C252.851334,456.382599 265.762634,443.537415 278.783508,430.804291 
	C280.362427,429.260223 282.532043,428.320221 284.795685,427.080078 
	C276.622711,444.365204 268.089447,461.674194 259.536194,478.973297 
	C257.252747,483.591644 254.908157,488.179779 251.984070,493.988831 
	C247.708969,485.399139 243.850784,477.647156 239.949722,469.544495 
z"/>
<path fill="#FE840A" opacity="1.000000" stroke="none" 
	d="
M261.378967,86.456665 
	C252.492584,95.546715 243.533463,104.339012 234.435089,112.984756 
	C232.446976,114.873955 229.961823,116.240082 227.363922,117.927322 
	C235.101898,101.533142 243.181534,85.058731 251.922150,67.236595 
	C255.378052,74.223000 258.317139,80.164635 261.378967,86.456665 
z"/>
<path fill="#DD5D16" opacity="1.000000" stroke="none" 
	d="
M110.461319,350.704987 
	C110.752449,350.736206 110.818535,350.950714 110.951630,351.495117 
	C110.757851,351.512787 110.497063,351.200531 110.461319,350.704987 
z"/>
<path fill="#DD5D16" opacity="1.000000" stroke="none" 
	d="
M181.833527,351.990234 
	C182.040192,352.169189 181.973572,352.349365 181.795959,352.793701 
	C181.367920,352.984772 181.168045,352.790833 181.050598,352.258850 
	C181.197342,352.024902 181.378769,352.008179 181.833527,351.990234 
z"/>
<path fill="#DD5D16" opacity="1.000000" stroke="none" 
	d="
M252.464981,210.118225 
	C229.280365,210.093445 206.563583,210.034058 183.364624,209.966537 
	C190.277969,209.612152 197.673538,209.265900 205.538086,208.892609 
	C219.694565,208.880936 233.382050,208.896286 247.538681,208.885834 
	C270.034576,208.891983 292.061371,208.907455 314.087952,208.982162 
	C316.214783,208.989365 318.340332,209.363892 320.848969,209.784027 
	C316.794983,210.035202 312.358551,210.070251 307.457275,210.140488 
	C288.972565,210.144989 270.952698,210.114304 252.464981,210.118225 
z"/>
<path fill="#FFFDFB" opacity="1.000000" stroke="none" 
	d="
M240.486572,321.706604 
	C235.462662,316.728546 230.744080,311.919617 225.740891,306.963104 
	C220.312531,301.580383 215.168793,296.345276 209.740662,290.961853 
	C205.472031,286.715027 201.413086,282.685394 197.538849,278.485443 
	C195.900085,276.708862 194.649673,274.574036 193.049728,272.301147 
	C192.693283,266.913849 193.169586,262.119598 198.119278,259.090942 
	C203.041595,256.079071 207.733734,256.417419 212.617966,259.994812 
	C218.075806,265.337494 223.193726,270.553619 228.750793,276.208862 
	C236.074799,283.515625 242.959671,290.383362 250.275131,297.680603 
	C260.469879,282.133453 270.326599,267.101807 280.183350,252.070175 
	C283.102051,247.873047 286.018555,243.674393 288.940125,239.479263 
	C291.903137,235.224564 295.801300,232.748062 301.147736,233.579315 
	C306.688171,234.440720 309.913879,237.858963 311.201843,243.648117 
	C310.032928,247.531372 309.323669,251.432968 307.344635,254.520676 
	C298.363922,268.532349 289.025146,282.314545 279.671448,296.502747 
	C274.413544,304.388794 269.278595,311.937500 264.190308,319.517456 
	C256.901215,330.375916 250.254761,331.058136 240.486572,321.706604 
z"/>
<path fill="#DD5D16" opacity="1.000000" stroke="none" 
	d="
M233.466644,352.029327 
	C216.669373,352.006531 200.340469,351.960388 183.553055,351.909485 
	C184.485291,351.604340 185.876038,351.303955 187.637985,350.990417 
	C203.694382,350.981476 219.379578,350.985657 235.533600,350.977631 
	C251.688400,350.972412 267.374359,350.979401 283.528503,350.974518 
	C294.304108,350.977631 304.611694,350.964996 314.918701,351.033722 
	C316.722839,351.045746 318.524689,351.399658 320.694153,351.799744 
	C315.015625,352.011047 308.970551,352.018188 302.456177,352.047363 
	C291.299408,352.053497 280.612000,352.037598 269.454895,352.047424 
	C257.301819,352.050781 245.618423,352.028381 233.466644,352.029327 
z"/>
<path fill="#FF7711" opacity="1.000000" stroke="none" 
	d="
M279.798676,252.087936 
	C270.326599,267.101807 260.469879,282.133453 250.275131,297.680603 
	C242.959671,290.383362 236.074799,283.515625 229.056732,276.338715 
	C238.861359,271.189209 248.767670,266.282654 258.747986,261.531555 
	C265.583313,258.277557 272.521698,255.239990 279.798676,252.087936 
z"/>
</svg>